<svg width="800" height="800" viewBox="0 0 800 800" fill="none" xmlns="http://www.w3.org/2000/svg">
<path d="M400 25C297.287 21.8978 197.528 59.6158 122.56 129.898C47.5929 200.18 3.52398 297.3 0 400C3.52398 502.7 47.5929 599.82 122.56 670.102C197.528 740.384 297.287 778.102 400 775C502.713 778.102 602.472 740.384 677.44 670.102C752.407 599.82 796.476 502.7 800 400C796.476 297.3 752.407 200.18 677.44 129.898C602.472 59.6158 502.713 21.8978 400 25ZM400 712.5C313.859 715.612 229.991 684.482 166.742 625.919C103.494 567.355 66.0133 486.126 62.5 400C66.0133 313.874 103.494 232.645 166.742 174.081C229.991 115.518 313.859 84.3877 400 87.5C486.141 84.3877 570.009 115.518 633.258 174.081C696.506 232.645 733.987 313.874 737.5 400C733.987 486.126 696.506 567.355 633.258 625.919C570.009 684.482 486.141 715.612 400 712.5Z" fill="white"/>
<path d="M399 585.5C419.987 585.5 437 568.487 437 547.5C437 526.513 419.987 509.5 399 509.5C378.013 509.5 361 526.513 361 547.5C361 568.487 378.013 585.5 399 585.5Z" fill="white"/>
<path d="M486.5 237.5C461.733 218.52 431.192 208.634 400 209.5C384.944 208.624 369.864 210.744 355.633 215.737C341.402 220.73 328.303 228.498 317.095 238.589C305.887 248.681 296.793 260.896 290.34 274.527C283.887 288.159 280.202 302.935 279.5 318V323.5H341.5V318.5C342.529 303.909 349.225 290.3 360.157 280.583C371.089 270.865 385.389 265.811 400 266.5C407.052 265.647 414.204 266.307 420.981 268.435C427.758 270.563 434.004 274.111 439.302 278.842C444.601 283.572 448.83 289.378 451.71 295.871C454.589 302.365 456.051 309.397 456 316.5C456 334 444 353 417 372C403.624 379.517 392.157 390.01 383.487 402.669C374.817 415.328 369.175 429.812 367 445V463H429V450C429.451 440.347 433.564 431.228 440.5 424.5C448.403 415.559 457.106 407.358 466.5 400L475 393C488.919 383.952 500.367 371.582 508.31 357.004C516.254 342.427 520.443 326.101 520.5 309.5C520.552 295.724 517.526 282.111 511.644 269.654C505.761 257.198 497.171 246.212 486.5 237.5Z" fill="white"/>
</svg>
