<svg width="800" height="800" viewBox="0 0 800 800" fill="none" xmlns="http://www.w3.org/2000/svg">
<path d="M727.578 515.156H68.2812V150.234C68.2812 124.062 89.5313 102.812 115.703 102.812H680.234C706.406 102.812 727.656 124.062 727.656 150.234V515.156H727.578Z" fill="#DBDBDB"/>
<path d="M727.578 525.313H68.2812C62.6563 525.313 58.125 520.781 58.125 515.156V150.234C58.125 118.516 83.9063 92.6562 115.703 92.6562H680.234C711.953 92.6562 737.812 118.438 737.812 150.234V515.156C737.734 520.781 733.203 525.313 727.578 525.313ZM78.4375 505H717.422V150.234C717.422 129.688 700.703 112.969 680.156 112.969H115.703C95.1563 112.969 78.4375 129.688 78.4375 150.234V505Z" fill="#0F0F0F"/>
<path d="M680.156 595.469H115.703C89.5313 595.469 68.2812 574.219 68.2812 548.047V508.984H727.578V548.047C727.578 574.297 706.328 595.469 680.156 595.469Z" fill="#9DC6AF"/>
<path d="M680.156 605.625H115.703C83.9844 605.625 58.125 579.844 58.125 548.047V498.828H737.734V548.047C737.734 579.844 711.953 605.625 680.156 605.625ZM78.4375 519.219V548.125C78.4375 568.672 95.1563 585.391 115.703 585.391H680.234C700.781 585.391 717.5 568.672 717.5 548.125V519.219H78.4375Z" fill="#191919"/>
<path d="M377.266 547.109C377.266 552.6 379.447 557.866 383.329 561.749C387.212 565.631 392.478 567.812 397.969 567.812C403.46 567.812 408.725 565.631 412.608 561.749C416.491 557.866 418.672 552.6 418.672 547.109C418.672 541.619 416.491 536.353 412.608 532.47C408.725 528.587 403.46 526.406 397.969 526.406C392.478 526.406 387.212 528.587 383.329 532.47C379.447 536.353 377.266 541.619 377.266 547.109Z" fill="#FAFCFB"/>
<path d="M189.844 276.094C189.844 297.332 198.281 317.7 213.298 332.718C228.316 347.735 248.684 356.172 269.922 356.172C291.16 356.172 311.528 347.735 326.546 332.718C341.563 317.7 350 297.332 350 276.094C350 254.856 341.563 234.488 326.546 219.47C311.528 204.452 291.16 196.016 269.922 196.016C248.684 196.016 228.316 204.452 213.298 219.47C198.281 234.488 189.844 254.856 189.844 276.094Z" fill="#FAFCFB"/>
<path d="M269.922 366.328C220.156 366.328 179.688 325.859 179.688 276.094C179.688 226.328 220.156 185.859 269.922 185.859C319.688 185.859 360.156 226.328 360.156 276.094C360.156 325.859 319.766 366.328 269.922 366.328ZM269.922 206.094C231.328 206.094 200 237.5 200 276.016C200 314.531 231.406 345.937 269.922 345.937C308.437 345.937 339.844 314.531 339.844 276.016C339.844 237.5 308.516 206.094 269.922 206.094Z" fill="#606060"/>
<path d="M247.812 276.094C247.812 281.958 250.142 287.581 254.288 291.727C258.434 295.874 264.058 298.203 269.922 298.203C275.786 298.203 281.409 295.874 285.556 291.727C289.702 287.581 292.031 281.958 292.031 276.094C292.031 270.23 289.702 264.606 285.556 260.46C281.409 256.314 275.786 253.984 269.922 253.984C264.058 253.984 258.434 256.314 254.288 260.46C250.142 264.606 247.812 270.23 247.812 276.094Z" fill="#0F0F0F"/>
<path d="M445.859 276.094C445.859 297.332 454.296 317.7 469.314 332.718C484.331 347.735 504.699 356.172 525.938 356.172C547.176 356.172 567.544 347.735 582.561 332.718C597.579 317.7 606.016 297.332 606.016 276.094C606.016 254.856 597.579 234.488 582.561 219.47C567.544 204.452 547.176 196.016 525.938 196.016C504.699 196.016 484.331 204.452 469.314 219.47C454.296 234.488 445.859 254.856 445.859 276.094Z" fill="#FAFCFB"/>
<path d="M525.938 366.328C476.172 366.328 435.703 325.859 435.703 276.094C435.703 226.328 476.172 185.859 525.938 185.859C575.703 185.859 616.172 226.328 616.172 276.094C616.172 325.859 575.703 366.328 525.938 366.328ZM525.938 206.094C487.344 206.094 456.016 237.5 456.016 276.016C456.016 314.531 487.422 345.937 525.938 345.937C564.453 345.937 595.859 314.531 595.859 276.016C595.859 237.5 564.453 206.094 525.938 206.094Z" fill="#606060"/>
<path d="M503.828 276.094C503.828 281.958 506.157 287.581 510.304 291.727C514.45 295.874 520.074 298.203 525.937 298.203C531.801 298.203 537.425 295.874 541.571 291.727C545.717 287.581 548.047 281.958 548.047 276.094C548.047 270.23 545.717 264.606 541.571 260.46C537.425 256.314 531.801 253.984 525.937 253.984C520.074 253.984 514.45 256.314 510.304 260.46C506.157 264.606 503.828 270.23 503.828 276.094Z" fill="#0F0F0F"/>
<path d="M438.203 363.75C438.203 385.859 420.078 403.984 397.969 403.984C375.859 403.984 357.734 385.859 357.734 363.75" fill="#FAFCFB"/>
<path d="M397.969 414.219C370.156 414.219 347.578 391.562 347.578 363.828C347.578 358.203 352.109 353.672 357.734 353.672C363.359 353.672 367.891 358.203 367.891 363.828C367.891 380.469 381.406 393.906 397.969 393.906C414.609 393.906 428.047 380.391 428.047 363.828C428.047 358.203 432.578 353.672 438.203 353.672C443.828 353.672 448.359 358.203 448.359 363.828C448.359 391.562 425.703 414.219 397.969 414.219Z" fill="#141414"/>
<path d="M330.938 595.469H464.922V665.469H330.938V595.469Z" fill="#FAFCFB"/>
<path d="M464.922 675.625H330.937C325.312 675.625 320.781 671.094 320.781 665.469V595.469C320.781 589.844 325.312 585.312 330.937 585.312H464.922C470.547 585.312 475.078 589.844 475.078 595.469V665.469C475.078 671.094 470.547 675.625 464.922 675.625ZM341.094 655.312H454.766V605.625H341.094V655.312Z" fill="#141414"/>
<path d="M521.328 702.266H274.531C259.844 702.266 247.812 690.234 247.812 675.547C247.812 660.859 259.844 648.828 274.531 648.828H521.25C535.937 648.828 547.969 660.859 547.969 675.547C547.969 690.313 536.016 702.266 521.328 702.266Z" fill="#FAFCFB"/>
<path d="M521.328 712.422H274.531C254.219 712.422 237.656 695.859 237.656 675.547C237.656 655.234 254.219 638.672 274.531 638.672H521.25C541.562 638.672 558.125 655.234 558.125 675.547C558.125 695.859 541.641 712.422 521.328 712.422ZM274.531 659.062C265.391 659.062 257.969 666.484 257.969 675.625C257.969 684.766 265.391 692.187 274.531 692.187H521.25C530.391 692.187 537.813 684.766 537.813 675.625C537.813 666.484 530.391 659.062 521.25 659.062H274.531Z" fill="#141414"/>
</svg>
